<svg xmlns="http://www.w3.org/2000/svg" version="1.1" xmlns:xlink="http://www.w3.org/1999/xlink" xmlns:svgjs="http://svgjs.com/svgjs" width="1440" height="560" preserveAspectRatio="none" viewBox="0 0 1440 560"><g mask="url(&quot;#SvgjsMask1004&quot;)" fill="none"><g transform="translate(0, 0)" stroke-linecap="round"><path d="M260 219.16 L260 340.83" stroke-width="15" stroke="rgba(209, 213, 219, 1)"></path><path d="M280 130.94 L280 429.06" stroke-width="15" stroke="rgba(209, 213, 219, 1)"></path><path d="M300 156.18 L300 403.82" stroke-width="15" stroke="rgba(209, 213, 219, 1)"></path><path d="M320 116.81 L320 443.19" stroke-width="15" stroke="rgba(209, 213, 219, 1)"></path><path d="M340 117.61 L340 442.39" stroke-width="15" stroke="rgba(209, 213, 219, 1)"></path><path d="M360 122.62 L360 437.38" stroke-width="15" stroke="rgba(209, 213, 219, 1)"></path><path d="M380 179.77 L380 380.23" stroke-width="15" stroke="rgba(209, 213, 219, 1)"></path><path d="M400 259.22 L400 300.78" stroke-width="15" stroke="rgba(209, 213, 219, 1)"></path><path d="M420 160.53 L420 399.48" stroke-width="15" stroke="rgba(209, 213, 219, 1)"></path><path d="M440 259.94 L440 300.06" stroke-width="15" stroke="rgba(209, 213, 219, 1)"></path><path d="M460 189.37 L460 370.63" stroke-width="15" stroke="rgba(209, 213, 219, 1)"></path><path d="M480 240.07 L480 319.93" stroke-width="15" stroke="rgba(209, 213, 219, 1)"></path><path d="M500 229.81 L500 330.19" stroke-width="15" stroke="rgba(209, 213, 219, 1)"></path><path d="M520 177.56 L520 382.44" stroke-width="15" stroke="rgba(209, 213, 219, 1)"></path><path d="M540 176.48 L540 383.52" stroke-width="15" stroke="rgba(209, 213, 219, 1)"></path><path d="M560 184.13 L560 375.88" stroke-width="15" stroke="rgba(209, 213, 219, 1)"></path><path d="M580 117.56 L580 442.44" stroke-width="15" stroke="rgba(209, 213, 219, 1)"></path><path d="M600 151.84 L600 408.16" stroke-width="15" stroke="rgba(209, 213, 219, 1)"></path><path d="M620 209.84 L620 350.15" stroke-width="15" stroke="rgba(209, 213, 219, 1)"></path><path d="M640 122.77 L640 437.23" stroke-width="15" stroke="rgba(209, 213, 219, 1)"></path><path d="M660 115.59 L660 444.41" stroke-width="15" stroke="rgba(209, 213, 219, 1)"></path><path d="M680 120.76 L680 439.24" stroke-width="15" stroke="rgba(209, 213, 219, 1)"></path><path d="M700 119.76 L700 440.24" stroke-width="15" stroke="rgba(209, 213, 219, 1)"></path><path d="M720 172.6 L720 387.4" stroke-width="15" stroke="rgba(209, 213, 219, 1)"></path><path d="M740 186.72 L740 373.28" stroke-width="15" stroke="rgba(209, 213, 219, 1)"></path><path d="M760 234.13 L760 325.87" stroke-width="15" stroke="rgba(209, 213, 219, 1)"></path><path d="M780 238.5 L780 321.5" stroke-width="15" stroke="rgba(209, 213, 219, 1)"></path><path d="M800 125.86 L800 434.14" stroke-width="15" stroke="rgba(209, 213, 219, 1)"></path><path d="M820 259.57 L820 300.43" stroke-width="15" stroke="rgba(209, 213, 219, 1)"></path><path d="M840 138.58 L840 421.42" stroke-width="15" stroke="rgba(209, 213, 219, 1)"></path><path d="M860 184.78 L860 375.22" stroke-width="15" stroke="rgba(209, 213, 219, 1)"></path><path d="M880 162.56 L880 397.44" stroke-width="15" stroke="rgba(209, 213, 219, 1)"></path><path d="M900 152.3 L900 407.7" stroke-width="15" stroke="rgba(209, 213, 219, 1)"></path><path d="M920 145.22 L920 414.78" stroke-width="15" stroke="rgba(209, 213, 219, 1)"></path><path d="M940 239.2 L940 320.8" stroke-width="15" stroke="rgba(209, 213, 219, 1)"></path><path d="M960 175.07 L960 384.93" stroke-width="15" stroke="rgba(209, 213, 219, 1)"></path><path d="M980 177.57 L980 382.43" stroke-width="15" stroke="rgba(209, 213, 219, 1)"></path><path d="M1000 148.06 L1000 411.94" stroke-width="15" stroke="rgba(209, 213, 219, 1)"></path><path d="M1020 229.57 L1020 330.43" stroke-width="15" stroke="rgba(209, 213, 219, 1)"></path><path d="M1040 167.79 L1040 392.21" stroke-width="15" stroke="rgba(209, 213, 219, 1)"></path><path d="M1060 223.84 L1060 336.16" stroke-width="15" stroke="rgba(209, 213, 219, 1)"></path><path d="M1080 239.3 L1080 320.7" stroke-width="15" stroke="rgba(209, 213, 219, 1)"></path><path d="M1100 149.01 L1100 410.99" stroke-width="15" stroke="rgba(209, 213, 219, 1)"></path><path d="M1120 241.81 L1120 318.19" stroke-width="15" stroke="rgba(209, 213, 219, 1)"></path><path d="M1140 206.95 L1140 353.05" stroke-width="15" stroke="rgba(209, 213, 219, 1)"></path><path d="M1160 125.84 L1160 434.16" stroke-width="15" stroke="rgba(209, 213, 219, 1)"></path><path d="M1180 159.17 L1180 400.83" stroke-width="15" stroke="rgba(209, 213, 219, 1)"></path></g></g><defs><mask id="SvgjsMask1004"><rect width="1440" height="560" fill="#ffffff"></rect></mask></defs></svg>