<svg width="120pt" height="60pt" viewBox="0 0 418 289" fill="none" xmlns="http://www.w3.org/2000/svg">
<path fill-rule="evenodd" clip-rule="evenodd" d="M104.303 0.887725C99.9632 2.18873 95.6052 5.56573 90.8292 11.3287C85.1652 18.1647 82.2072 23.4567 73.6912 41.9867C69.8052 50.4417 64.5982 60.0607 62.1202 63.3607L57.6152 69.3607L67.8852 69.8607C74.5742 70.1867 78.9402 70.8807 80.4052 71.8517C83.8102 74.1067 85.6552 78.9907 85.6552 85.7497V91.8357L78.6552 95.3607L71.6552 98.8857V90.8207V82.7557L66.4052 83.0587L61.1552 83.3607V113.861V144.361L66.4052 144.663L71.6552 144.966V133.878C71.6552 123.226 71.5792 122.831 69.7212 123.826C66.0892 125.769 65.6552 125.08 65.6552 117.37V109.879L75.6552 104.861L85.6552 99.8427V128.852V157.861H70.2902C56.0422 157.861 54.7242 157.703 52.1692 155.693C46.8812 151.534 46.6552 149.801 46.6552 113.448V79.9697L36.3242 86.8407C25.2642 94.1967 20.0682 99.2457 19.0482 103.629C18.6982 105.132 15.9752 108.866 12.9962 111.928C6.94819 118.144 3.99719 125.173 0.97319 140.561C-0.89281 150.059 -0.245811 155.579 4.40719 169.835C8.96119 183.792 15.3002 190.942 28.8042 197.355C41.0592 203.174 53.6452 205.846 73.6552 206.875C98.3592 208.145 108.883 210.422 120.647 217.043C129.73 222.155 137.277 228.682 143.895 237.15C160.913 258.924 166.054 264.988 173.778 272.392C183.015 281.248 189.382 285.94 194.554 287.702C205.824 291.544 222.088 285.553 234.696 272.917C242.901 264.695 248.702 253.142 256.171 230.157C262.548 210.532 267.139 200.961 273.716 193.581C279.411 187.193 289.125 180.339 293.898 179.344C295.689 178.97 300.755 177.415 305.155 175.887C315.038 172.457 323.394 171.13 340.155 170.328C357.265 169.509 372.274 167.408 386.268 163.874C409.059 158.118 417.578 150.742 417.633 136.716C417.675 125.842 411.754 112.617 402.015 101.838C396.268 95.4757 380.192 82.8657 371.155 77.6297C370.493 77.2467 370.254 90.7177 370.448 117.456L370.74 157.861H363.71H356.679L356.417 120.611L356.155 83.3607L350.905 83.0587L345.655 82.7557V120.309V157.861H338.655H331.655V113.861V69.8607H338.655C345.42 69.8607 345.655 69.9427 345.655 72.3147V74.7687L349.022 72.5647C352.978 69.9757 352.548 69.5627 343.522 67.2847C338.685 66.0647 328.863 65.4837 302.655 64.8707C274.228 64.2047 265.977 63.6787 255.783 61.8817C234.771 58.1777 219.49 53.5037 206.155 46.7047C192.862 39.9267 188.871 37.2987 170.655 23.3237C156.128 12.1787 139.889 3.58072 129.155 1.34972C121.53 -0.234277 108.834 -0.470275 104.303 0.887725ZM109.655 107.361V144.861H119.655H129.655V151.361V157.861H112.655H95.6552V113.861V69.8607H102.655H109.655V107.361ZM170.691 72.3607C175.484 76.6397 175.655 78.2597 175.655 119.329V157.861H168.655H161.655V139.361C161.655 129.186 161.43 120.861 161.156 120.861C160.881 120.861 158.412 122.099 155.67 123.611L150.684 126.361L150.669 142.111L150.655 157.861H143.655H136.655V118.762C136.655 76.0917 136.768 75.1617 142.411 71.5707C144.692 70.1177 147.118 69.8687 156.803 70.0927C166.806 70.3227 168.768 70.6437 170.691 72.3607ZM217.644 71.3547C223.755 74.5147 223.655 73.8047 223.655 114.068V150.829L220.739 154.095L217.824 157.361L201.739 157.68L185.655 157.999V113.93V69.8607H200.205C211.157 69.8607 215.469 70.2297 217.644 71.3547ZM266.688 71.3777C270.279 73.2347 272.655 77.5827 272.655 82.2967C272.655 85.6127 272.284 86.0187 266.684 88.8467C263.399 90.5047 260.249 91.8607 259.684 91.8607C259.118 91.8607 258.655 89.8357 258.655 87.3607V82.8607H253.655H248.655V94.3607C248.655 100.686 248.95 105.861 249.311 105.861C249.672 105.861 255.072 103.143 261.311 99.8197L272.655 93.7797V121.37C272.655 151.826 272.38 153.401 266.527 156.427C264.085 157.69 261.011 157.957 251.959 157.694L240.486 157.361L237.571 154.095C234.959 151.169 234.655 150.125 234.655 144.06V137.29L241.174 134.076C244.759 132.308 247.909 130.861 248.174 130.861C248.439 130.861 248.655 134.011 248.655 137.861V144.861H253.655H258.655V130.772V116.684L247.162 122.772C240.841 126.121 235.441 128.861 235.162 128.861C234.883 128.861 234.655 117.222 234.655 102.996C234.655 78.0877 234.734 77.0297 236.793 74.4127C239.837 70.5427 241.869 69.9957 253.455 69.9237C260.809 69.8787 264.593 70.2947 266.688 71.3777ZM315.735 71.5667C321.459 74.9477 321.655 76.3517 321.655 113.861C321.655 143.441 321.434 148.524 320.02 151.504C317.52 156.773 314.398 157.861 301.781 157.861C291.452 157.861 290.629 157.71 287.75 155.287C286.068 153.872 284.206 151.059 283.613 149.037C282.906 146.63 282.641 133.738 282.845 111.683C283.143 79.3057 283.236 77.8947 285.251 75.1827C288.573 70.7117 291.24 69.8917 302.501 69.8757C310.477 69.8637 313.508 70.2517 315.735 71.5667ZM150.655 96.3087C150.655 103.762 150.895 109.861 151.188 109.861C151.482 109.861 153.972 108.721 156.722 107.327L161.722 104.793L161.438 94.0767L161.155 83.3607L155.905 83.0587L150.655 82.7557V96.3087ZM199.655 113.861V144.861H204.655H209.655V113.861V82.8607H204.655H199.655V113.861ZM297.108 84.1227C296.842 84.8157 296.744 98.6537 296.89 114.873L297.155 144.361L302.405 144.663L307.655 144.966V113.913V82.8607H302.624C299.496 82.8607 297.409 83.3377 297.108 84.1227Z" fill="#0284C7"/>
</svg>
